<svg xmlns="http://www.w3.org/2000/svg" viewBox="0 0 760 760" role="img" aria-labelledby="title desc"><title id="title">LUMINA oracle visual</title><desc id="desc">A luminous crystal orb, orbit lines, stars and oracle cards in a midnight violet sky.</desc><defs><radialGradient id="bg"><stop stop-color="#6f42c1"/><stop offset=".45" stop-color="#241453"/><stop offset="1" stop-color="#090c2c"/></radialGradient><radialGradient id="orb"><stop stop-color="#fffde5"/><stop offset=".18" stop-color="#ffdfb5"/><stop offset=".42" stop-color="#d7a5ff"/><stop offset=".72" stop-color="#784bd4" stop-opacity=".75"/><stop offset="1" stop-color="#36206e" stop-opacity="0"/></radialGradient><linearGradient id="card" x2="1" y2="1"><stop stop-color="#25155b"/><stop offset="1" stop-color="#0c1138"/></linearGradient><filter id="glow"><feGaussianBlur stdDeviation="12" result="b"/><feMerge><feMergeNode in="b"/><feMergeNode in="SourceGraphic"/></feMerge></filter></defs><circle cx="380" cy="360" r="310" fill="url(#bg)" opacity=".7"/><g fill="none" stroke="#d9a86a" opacity=".45"><circle cx="390" cy="330" r="226"/><ellipse cx="390" cy="330" rx="265" ry="120" transform="rotate(-18 390 330)"/><ellipse cx="390" cy="330" rx="190" ry="282" transform="rotate(27 390 330)"/></g><g fill="#fff4d6"><circle cx="170" cy="122" r="3"/><circle cx="604" cy="164" r="4"/><circle cx="635" cy="424" r="3"/><circle cx="142" cy="410" r="2"/><circle cx="260" cy="80" r="2"/><path d="m560 95 5 14 14 5-14 5-5 14-5-14-14-5 14-5z" opacity=".8"/><path d="m135 270 4 11 11 4-11 4-4 11-4-11-11-4 11-4z" opacity=".7"/></g><circle cx="390" cy="322" r="150" fill="url(#orb)" filter="url(#glow)"/><circle cx="390" cy="322" r="88" fill="none" stroke="#fff7cf" stroke-width="2" opacity=".7"/><path d="M338 340c31-51 76-70 108-27-8 57-47 91-93 69" fill="none" stroke="#fff8db" stroke-width="3" opacity=".8"/><path d="m390 250 13 36 36 13-36 13-13 36-13-36-36-13 36-13z" fill="#fffbdc" opacity=".86"/><g transform="translate(118 472) rotate(-12 90 125)"><rect width="180" height="250" rx="16" fill="url(#card)" stroke="#d8aa65" stroke-width="2"/><circle cx="90" cy="108" r="52" fill="none" stroke="#a780e8"/><path d="M109 73a38 38 0 1 0 0 70 44 44 0 1 1 0-70z" fill="#f5d58f"/><path d="M45 205h90" stroke="#d8aa65"/><text x="90" y="226" text-anchor="middle" fill="#f8e5b7" font-size="12" font-family="serif">THE MOON</text></g><g transform="translate(464 478) rotate(11 90 125)"><rect width="180" height="250" rx="16" fill="url(#card)" stroke="#d8aa65" stroke-width="2"/><circle cx="90" cy="108" r="52" fill="none" stroke="#a780e8"/><path d="m90 66 12 30 30 12-30 12-12 30-12-30-30-12 30-12z" fill="#f6d995"/><path d="M45 205h90" stroke="#d8aa65"/><text x="90" y="226" text-anchor="middle" fill="#f8e5b7" font-size="12" font-family="serif">THE STAR</text></g><path d="M248 566c51-33 94-45 142-25 45-23 89-11 135 22" fill="none" stroke="#f2d39b" stroke-width="5" stroke-linecap="round" opacity=".65"/></svg>
